<?xml version="1.0" standalone="no"?>
<!DOCTYPE svg PUBLIC "-//W3C//DTD SVG 20010904//EN"
 "http://www.w3.org/TR/2001/REC-SVG-20010904/DTD/svg10.dtd">
<svg version="1.0" xmlns="http://www.w3.org/2000/svg"
 width="938.000000pt" height="938.000000pt" viewBox="0 0 938.000000 938.000000"
 preserveAspectRatio="xMidYMid meet">

<g transform="translate(0.000000,938.000000) scale(0.100000,-0.100000)"
fill="#000000" stroke="none">
<path d="M7074 6730 c-345 -78 -593 -331 -706 -720 -47 -164 -62 -294 -62
-540 1 -197 4 -255 22 -358 21 -116 30 -149 69 -267 99 -300 306 -518 573
-603 118 -38 181 -46 355 -45 193 0 282 17 411 80 205 100 319 275 237 365
-26 29 -40 21 -58 -34 -29 -90 -77 -169 -143 -235 -108 -108 -204 -144 -397
-151 -204 -7 -332 26 -463 117 -172 121 -286 357 -342 706 -40 255 -36 693 9
930 80 417 238 642 513 726 62 19 95 23 223 23 169 0 250 -18 338 -74 94 -60
154 -197 175 -402 l7 -73 29 3 c45 5 102 38 127 74 32 44 33 153 2 220 -59
128 -200 222 -396 263 -107 22 -415 19 -523 -5z"/>
<path d="M1396 6711 c-3 -5 36 -10 87 -13 125 -5 181 -32 217 -103 l25 -50 0
-1070 0 -1070 -25 -50 c-36 -71 -79 -93 -198 -98 -94 -4 -138 -20 -91 -32 14
-3 410 -5 882 -3 749 3 859 5 867 18 5 8 10 76 10 150 0 74 5 192 11 262 12
127 8 171 -12 151 -6 -6 -14 -77 -19 -159 -18 -297 -69 -364 -290 -385 -119
-11 -871 -12 -888 -1 -10 7 -12 140 -10 633 l3 624 428 3 c370 2 427 4 427 17
0 13 -56 15 -430 15 l-430 0 2 573 3 572 370 3 c538 4 592 -8 656 -153 24 -55
48 -218 49 -332 0 -64 9 -89 23 -65 6 9 -12 518 -19 550 l-4 22 -820 0 c-461
0 -821 -4 -824 -9z"/>
<path d="M3730 6698 c59 -24 76 -36 102 -73 47 -68 49 -134 46 -1225 l-3 -995
-23 -47 c-27 -54 -48 -75 -100 -99 -36 -17 -32 -17 217 -18 226 -1 253 1 235
14 -10 8 -24 15 -30 15 -7 0 -26 15 -42 34 -53 61 -57 100 -57 621 1 259 1
556 0 660 -1 613 6 940 22 989 22 66 60 105 120 121 43 12 18 13 -232 13 -199
1 -273 -2 -255 -10z"/>
<path d="M5220 6700 c8 -5 23 -10 33 -10 28 0 77 -41 100 -85 22 -39 22 -51
25 -537 2 -312 0 -504 -6 -515 -6 -11 -7 -25 -2 -34 5 -8 10 -256 11 -550 1
-519 1 -536 -20 -593 -22 -63 -54 -106 -80 -106 -9 0 -25 -7 -35 -15 -18 -13
9 -15 240 -15 l259 1 -45 23 c-25 13 -55 36 -68 51 -51 58 -52 80 -52 1176 0
942 2 1020 18 1068 24 72 64 118 112 131 22 6 40 13 40 15 0 3 -123 5 -272 5
-180 0 -268 -4 -258 -10z"/>
<path d="M1730 3631 c0 -74 3 -101 13 -101 9 0 12 26 12 97 0 68 -4 97 -12
100 -10 4 -13 -20 -13 -96z"/>
<path d="M2042 3720 c15 -44 96 -189 106 -189 16 -1 16 2 -12 51 -13 24 -36
67 -52 96 -15 28 -32 52 -37 52 -5 0 -7 -4 -5 -10z"/>
<path d="M2350 3630 c0 -75 3 -100 13 -100 14 0 22 123 11 173 -12 58 -24 23
-24 -73z"/>
<path d="M2648 3630 c-2 -70 0 -100 8 -100 15 0 19 186 5 194 -6 4 -11 -33
-13 -94z"/>
<path d="M2948 3630 c-2 -75 0 -100 10 -100 9 0 12 26 12 94 0 129 -18 133
-22 6z"/>
<path d="M3300 3630 c0 -60 4 -100 10 -100 6 0 10 40 10 100 0 60 -4 100 -10
100 -6 0 -10 -40 -10 -100z"/>
<path d="M6314 3713 c30 -93 65 -178 74 -181 11 -3 -16 82 -49 156 -19 41 -36
58 -25 25z"/>
<path d="M6581 3630 c1 -55 6 -100 11 -100 4 0 8 45 8 100 0 62 -4 100 -10
100 -7 0 -10 -36 -9 -100z"/>
<path d="M6880 3630 c0 -60 4 -100 10 -100 6 0 10 40 10 100 0 60 -4 100 -10
100 -6 0 -10 -40 -10 -100z"/>
<path d="M7147 3723 c-12 -19 -6 -193 7 -193 7 0 10 25 8 72 -4 117 -6 134
-15 121z"/>
<path d="M7730 3631 c0 -61 4 -101 10 -101 6 0 10 38 10 94 0 53 -4 98 -10
101 -6 4 -10 -30 -10 -94z"/>
<path d="M2450 3688 c0 -21 5 -38 10 -38 13 0 13 40 0 60 -7 11 -10 5 -10 -22z"/>
<path d="M3040 3684 c1 -36 2 -38 15 -20 19 25 19 31 0 46 -13 11 -15 7 -15
-26z"/>
<path d="M3546 3703 c-10 -30 3 -51 49 -76 24 -14 41 -32 45 -47 4 -17 8 -21
14 -12 13 22 -4 51 -45 74 -27 15 -42 32 -48 52 -7 29 -8 30 -15 9z"/>
<path d="M6060 3709 c0 -5 5 -7 10 -4 6 3 10 8 10 11 0 2 -4 4 -10 4 -5 0 -10
-5 -10 -11z"/>
<path d="M6680 3682 c0 -26 4 -41 10 -37 13 8 13 45 0 65 -7 11 -10 3 -10 -28z"/>
<path d="M4152 3685 c0 -16 2 -22 5 -12 2 9 2 23 0 30 -3 6 -5 -1 -5 -18z"/>
<path d="M5943 3683 c-17 -35 -16 -75 1 -98 12 -17 14 -11 14 53 1 40 0 72 -1
72 -1 0 -8 -12 -14 -27z"/>
<path d="M7471 3695 c-1 -16 45 -149 56 -164 2 -2 6 -1 10 2 3 4 1 19 -7 35
-7 15 -16 36 -20 47 -4 11 -12 31 -18 45 -6 14 -13 32 -15 40 -4 10 -6 9 -6
-5z"/>
<path d="M3010 3620 c0 -9 13 -31 29 -50 22 -26 29 -30 25 -14 -7 29 -53 83
-54 64z"/>
<path d="M5821 3184 c0 -11 3 -14 6 -6 3 7 2 16 -1 19 -3 4 -6 -2 -5 -13z"/>
<path d="M5690 3176 c0 -9 5 -16 10 -16 6 0 10 4 10 9 0 6 -4 13 -10 16 -5 3
-10 -1 -10 -9z"/>
<path d="M2803 3100 c0 -25 2 -35 4 -22 2 12 2 32 0 45 -2 12 -4 2 -4 -23z"/>
<path d="M3060 3070 c0 -5 5 -10 11 -10 5 0 7 5 4 10 -3 6 -8 10 -11 10 -2 0
-4 -4 -4 -10z"/>
<path d="M5822 3025 c0 -16 2 -22 5 -12 2 9 2 23 0 30 -3 6 -5 -1 -5 -18z"/>
</g>
</svg>
